<svg width="436" height="146" viewBox="0 0 436 146" fill="none" xmlns="http://www.w3.org/2000/svg">
<mask id="path-1-inside-1_1_25" fill="white">
<path d="M0 0H436V146H0Z"/>
</mask>
<path d="M0 0H436V146H0Z" fill="#101828"/>
<path d="M0 0V1H436V0V-1H0V0ZM436 0H435V146H436H437V0H436ZM436 146V145H0V146V147H436V146ZM0 146H1V0H0H-1V146H0Z" fill="#1E2939" mask="url(#path-1-inside-1_1_25)"/>
<path d="M134.066 94V51.7246H152.143C156.42 51.7246 160.072 52.5156 163.1 54.0977C166.146 55.6797 168.471 58.0137 170.072 61.0996C171.693 64.1855 172.504 67.9844 172.504 72.4961V72.5547C172.504 77.0664 171.693 80.9238 170.072 84.127C168.471 87.3301 166.146 89.7812 163.1 91.4805C160.072 93.1602 156.42 94 152.143 94H134.066ZM146.488 84.127H150.385C152.455 84.127 154.193 83.707 155.6 82.8672C157.006 82.0078 158.061 80.7285 158.764 79.0293C159.486 77.3105 159.848 75.1523 159.848 72.5547V72.4961C159.848 70.1328 159.467 68.1406 158.705 66.5195C157.963 64.8984 156.879 63.6777 155.453 62.8574C154.047 62.0176 152.357 61.5977 150.385 61.5977H146.488V84.127Z" fill="white"/>
<path d="M178.02 93.7031V51.6797H183.996V93.7031H178.02ZM188.168 93.7031V51.6797H194.145V93.7031H188.168Z" fill="#FF6900"/>
<path d="M211.322 94V61.5684H200.189V51.7246H234.877V61.5684H223.744V94H211.322ZM245.91 94V61.5684H234.777V51.7246H269.465V61.5684H258.332V94H245.91ZM289.17 94.7617C284.814 94.7617 281.045 93.8828 277.861 92.125C274.678 90.3477 272.217 87.8184 270.479 84.5371C268.76 81.2559 267.9 77.3691 267.9 72.877V72.8184C267.9 68.3262 268.77 64.4492 270.508 61.1875C272.246 57.9062 274.707 55.3867 277.891 53.6289C281.074 51.8516 284.834 50.9629 289.17 50.9629C293.545 50.9629 297.324 51.8516 300.508 53.6289C303.711 55.4062 306.172 57.9258 307.891 61.1875C309.629 64.4492 310.498 68.3262 310.498 72.8184V72.877C310.498 77.3691 309.629 81.2559 307.891 84.5371C306.172 87.7988 303.721 90.3184 300.537 92.0957C297.354 93.873 293.564 94.7617 289.17 94.7617ZM289.17 84.625C290.967 84.625 292.51 84.1465 293.799 83.1895C295.088 82.2324 296.084 80.875 296.787 79.1172C297.49 77.3594 297.842 75.2793 297.842 72.877V72.8184C297.842 70.3965 297.48 68.3164 296.758 66.5781C296.055 64.8203 295.049 63.4727 293.74 62.5352C292.451 61.5781 290.928 61.0996 289.17 61.0996C287.451 61.0996 285.938 61.5684 284.629 62.5059C283.34 63.4434 282.334 64.791 281.611 66.5488C280.908 68.2871 280.557 70.377 280.557 72.8184V72.877C280.557 75.2988 280.908 77.3887 281.611 79.1465C282.334 80.9043 283.34 82.2617 284.629 83.2188C285.918 84.1562 287.432 84.625 289.17 84.625Z" fill="white"/>
</svg>
