<svg width="436" height="146" viewBox="0 0 436 146" fill="none" xmlns="http://www.w3.org/2000/svg">
<mask id="path-1-inside-1_1_15" fill="white">
<path d="M0 0H436V146H0Z"/>
</mask>
<path d="M0 0H436V146H0Z" fill="#F9FAFB"/>
<path d="M0 0V1H436V0V-1H0V0ZM436 0H435V146H436H437V0H436ZM436 146V145H0V146V147H436V146ZM0 146H1V0H0H-1V146H0Z" fill="#E5E7EB" mask="url(#path-1-inside-1_1_15)"/>
<path d="M134.066 94V51.7246H152.143C156.42 51.7246 160.072 52.5156 163.1 54.0977C166.146 55.6797 168.471 58.0137 170.072 61.0996C171.693 64.1855 172.504 67.9844 172.504 72.4961V72.5547C172.504 77.0664 171.693 80.9238 170.072 84.127C168.471 87.3301 166.146 89.7812 163.1 91.4805C160.072 93.1602 156.42 94 152.143 94H134.066ZM146.488 84.127H150.385C152.455 84.127 154.193 83.707 155.6 82.8672C157.006 82.0078 158.061 80.7285 158.764 79.0293C159.486 77.3105 159.848 75.1523 159.848 72.5547V72.4961C159.848 70.1328 159.467 68.1406 158.705 66.5195C157.963 64.8984 156.879 63.6777 155.453 62.8574C154.047 62.0176 152.357 61.5977 150.385 61.5977H146.488V84.127Z" fill="#101828"/>
<path d="M178.02 93.7031V51.6797H183.996V93.7031H178.02ZM188.168 93.7031V51.6797H194.145V93.7031H188.168Z" fill="#FF6900"/>
<path d="M211.322 94V61.5684H200.189V51.7246H234.877V61.5684H223.744V94H211.322ZM248.646 94V61.5684H237.514V51.7246H272.201V61.5684H261.068V94H248.646ZM294.643 94.7617C290.287 94.7617 286.518 93.8828 283.334 92.125C280.15 90.3477 277.689 87.8184 275.951 84.5371C274.232 81.2559 273.373 77.3691 273.373 72.877V72.8184C273.373 68.3262 274.242 64.4492 275.98 61.1875C277.719 57.9062 280.18 55.3867 283.363 53.6289C286.547 51.8516 290.307 50.9629 294.643 50.9629C299.018 50.9629 302.797 51.8516 305.98 53.6289C309.184 55.4062 311.645 57.9258 313.363 61.1875C315.102 64.4492 315.971 68.3262 315.971 72.8184V72.877C315.971 77.3691 315.102 81.2559 313.363 84.5371C311.645 87.7988 309.193 90.3184 306.01 92.0957C302.826 93.873 299.037 94.7617 294.643 94.7617ZM294.643 84.625C296.439 84.625 297.982 84.1465 299.271 83.1895C300.561 82.2324 301.557 80.875 302.26 79.1172C302.963 77.3594 303.314 75.2793 303.314 72.877V72.8184C303.314 70.3965 302.953 68.3164 302.23 66.5781C301.527 64.8203 300.521 63.4727 299.213 62.5352C297.924 61.5781 296.4 61.0996 294.643 61.0996C292.924 61.0996 291.41 61.5684 290.102 62.5059C288.812 63.4434 287.807 64.791 287.084 66.5488C286.381 68.2871 286.029 70.377 286.029 72.8184V72.877C286.029 75.2988 286.381 77.3887 287.084 79.1465C287.807 80.9043 288.812 82.2617 290.102 83.2188C291.391 84.1562 292.904 84.625 294.643 84.625Z" fill="#101828"/>
</svg>
